<svg xmlns="http://www.w3.org/2000/svg" xmlns:cc="http://web.resource.org/cc/" xmlns:xlink="http://www.w3.org/1999/xlink" id="svg22956" width="64pt" height="64pt"><defs id="defs3"><linearGradient id="XMLID_269_" x1="648.808" x2="643.071" y1="186.342" y2="173.255" gradientUnits="userSpaceOnUse"><stop style="stop-color:#fff" id="stop368" offset="0"/><stop style="stop-color:#0671b0" id="stop370" offset="1"/><midPointStop style="stop-color:#fff" id="midPointStop372" offset="0"/><midPointStop style="stop-color:#fff" id="midPointStop374" offset=".5"/><midPointStop style="stop-color:#0671b0" id="midPointStop376" offset="1"/></linearGradient><linearGradient id="linearGradient30232" x1="648.808" x2="643.071" y1="186.342" y2="173.256" gradientUnits="userSpaceOnUse" xlink:href="#XMLID_269_"/><linearGradient id="XMLID_268_" x1="829.503" x2="686.78" y1="131.099" y2="80.784" gradientUnits="userSpaceOnUse"><stop style="stop-color:#fff" id="stop351" offset="0"/><stop style="stop-color:red" id="stop353" offset="1"/><midPointStop style="stop-color:#fff" id="midPointStop355" offset="0"/><midPointStop style="stop-color:#fff" id="midPointStop357" offset=".5"/><midPointStop style="stop-color:red" id="midPointStop359" offset="1"/></linearGradient><linearGradient id="linearGradient30231" x1="829.503" x2="686.78" y1="131.099" y2="80.784" gradientUnits="userSpaceOnUse" xlink:href="#XMLID_268_"/><linearGradient id="XMLID_267_" x1="886.864" x2="791.376" y1="135.27" y2="71.931" gradientUnits="userSpaceOnUse"><stop style="stop-color:#fff" id="stop336" offset="0"/><stop style="stop-color:#abda4d" id="stop338" offset="1"/><midPointStop style="stop-color:#fff" id="midPointStop340" offset="0"/><midPointStop style="stop-color:#fff" id="midPointStop342" offset=".5"/><midPointStop style="stop-color:#abda4d" id="midPointStop344" offset="1"/></linearGradient><linearGradient id="linearGradient30230" x1="886.864" x2="791.376" y1="135.27" y2="71.931" gradientUnits="userSpaceOnUse" xlink:href="#XMLID_267_"/><linearGradient id="XMLID_266_" x1="776.015" x2="766.755" y1="150.294" y2="125.425" gradientUnits="userSpaceOnUse"><stop style="stop-color:#ff0" id="stop320" offset="0"/><stop style="stop-color:#ffb300" id="stop322" offset="1"/><midPointStop style="stop-color:#ff0" id="midPointStop324" offset="0"/><midPointStop style="stop-color:#ff0" id="midPointStop326" offset=".5"/><midPointStop style="stop-color:#ffb300" id="midPointStop328" offset="1"/></linearGradient><linearGradient id="linearGradient30229" x1="776.015" x2="766.755" y1="150.294" y2="125.425" gradientUnits="userSpaceOnUse" xlink:href="#XMLID_266_"/><linearGradient id="XMLID_265_" x1="607.829" x2="607.829" y1="150.013" y2="201.286" gradientUnits="userSpaceOnUse"><stop style="stop-color:#0671b0" id="stop305" offset="0"/><stop style="stop-color:#0a50a1" id="stop307" offset="1"/><midPointStop style="stop-color:#0671b0" id="midPointStop309" offset="0"/><midPointStop style="stop-color:#0671b0" id="midPointStop311" offset=".5"/><midPointStop style="stop-color:#0a50a1" id="midPointStop313" offset="1"/></linearGradient><linearGradient id="linearGradient30228" x1="607.829" x2="607.829" y1="150.013" y2="201.286" gradientUnits="userSpaceOnUse" xlink:href="#XMLID_265_"/><linearGradient id="XMLID_264_" x1="834.195" x2="849.266" y1="100.342" y2="115.415" gradientUnits="userSpaceOnUse"><stop style="stop-color:#abda4d" id="stop290" offset="0"/><stop style="stop-color:#33a02c" id="stop292" offset="1"/><midPointStop style="stop-color:#abda4d" id="midPointStop294" offset="0"/><midPointStop style="stop-color:#abda4d" id="midPointStop296" offset=".5"/><midPointStop style="stop-color:#33a02c" id="midPointStop298" offset="1"/></linearGradient><linearGradient id="linearGradient30227" x1="834.195" x2="849.266" y1="100.342" y2="115.415" gradientUnits="userSpaceOnUse" xlink:href="#XMLID_264_"/><linearGradient id="XMLID_263_" x1="689.53" x2="758.256" y1="157.283" y2="188.467" gradientUnits="userSpaceOnUse"><stop style="stop-color:#ff0" id="stop275" offset="0"/><stop style="stop-color:#ffb300" id="stop277" offset="1"/><midPointStop style="stop-color:#ff0" id="midPointStop279" offset="0"/><midPointStop style="stop-color:#ff0" id="midPointStop281" offset=".5"/><midPointStop style="stop-color:#ffb300" id="midPointStop283" offset="1"/></linearGradient><linearGradient id="linearGradient30226" x1="689.53" x2="758.256" y1="157.283" y2="188.466" gradientUnits="userSpaceOnUse" xlink:href="#XMLID_263_"/><linearGradient id="XMLID_262_" x1="763.34" x2="769.233" y1="240.926" y2="294.8" gradientUnits="userSpaceOnUse"><stop style="stop-color:#fff" id="stop260" offset="0"/><stop style="stop-color:#67c6dd" id="stop262" offset="1"/><midPointStop style="stop-color:#fff" id="midPointStop264" offset="0"/><midPointStop style="stop-color:#fff" id="midPointStop266" offset=".5"/><midPointStop style="stop-color:#67c6dd" id="midPointStop268" offset="1"/></linearGradient><linearGradient id="linearGradient30225" x1="763.34" x2="769.233" y1="240.926" y2="294.8" gradientUnits="userSpaceOnUse" xlink:href="#XMLID_262_"/><linearGradient id="XMLID_261_" x1="849.465" x2="855.358" y1="144.121" y2="197.995" gradientUnits="userSpaceOnUse"><stop style="stop-color:#fff" id="stop245" offset="0"/><stop style="stop-color:#67c6dd" id="stop247" offset="1"/><midPointStop style="stop-color:#fff" id="midPointStop249" offset="0"/><midPointStop style="stop-color:#fff" id="midPointStop251" offset=".5"/><midPointStop style="stop-color:#67c6dd" id="midPointStop253" offset="1"/></linearGradient><linearGradient id="linearGradient30224" x1="849.465" x2="855.358" y1="144.121" y2="197.995" gradientUnits="userSpaceOnUse" xlink:href="#XMLID_261_"/><linearGradient id="XMLID_260_" x1="847.782" x2="853.674" y1="248.082" y2="301.954" gradientUnits="userSpaceOnUse"><stop style="stop-color:#fff" id="stop230" offset="0"/><stop style="stop-color:#67c6dd" id="stop232" offset="1"/><midPointStop style="stop-color:#fff" id="midPointStop234" offset="0"/><midPointStop style="stop-color:#fff" id="midPointStop236" offset=".5"/><midPointStop style="stop-color:#67c6dd" id="midPointStop238" offset="1"/></linearGradient><linearGradient id="linearGradient30223" x1="847.782" x2="853.674" y1="248.082" y2="301.954" gradientUnits="userSpaceOnUse" xlink:href="#XMLID_260_"/><linearGradient id="XMLID_259_" x1="785.049" x2="878.176" y1="182.787" y2="257.329" gradientUnits="userSpaceOnUse"><stop style="stop-color:#fff" id="stop215" offset="0"/><stop style="stop-color:#67c6dd" id="stop217" offset="1"/><midPointStop style="stop-color:#fff" id="midPointStop219" offset="0"/><midPointStop style="stop-color:#fff" id="midPointStop221" offset=".5"/><midPointStop style="stop-color:#67c6dd" id="midPointStop223" offset="1"/></linearGradient><linearGradient id="linearGradient30222" x1="785.049" x2="878.176" y1="182.787" y2="257.329" gradientUnits="userSpaceOnUse" xlink:href="#XMLID_259_"/><linearGradient id="XMLID_258_" x1="895.027" x2="767.969" y1="284.001" y2="156.944" gradientUnits="userSpaceOnUse"><stop style="stop-color:#fff" id="stop198" offset="0"/><stop style="stop-color:#67c6dd" id="stop200" offset="1"/><midPointStop style="stop-color:#fff" id="midPointStop202" offset="0"/><midPointStop style="stop-color:#fff" id="midPointStop204" offset=".5"/><midPointStop style="stop-color:#67c6dd" id="midPointStop206" offset="1"/></linearGradient><linearGradient id="linearGradient30221" x1="895.027" x2="767.97" y1="284.001" y2="156.944" gradientUnits="userSpaceOnUse" xlink:href="#XMLID_258_"/><linearGradient id="XMLID_257_" x1="712.831" x2="789.705" y1="183.772" y2="245.306" gradientUnits="userSpaceOnUse"><stop style="stop-color:#fff" id="stop173" offset="0"/><stop style="stop-color:#67c6dd" id="stop175" offset="1"/><midPointStop style="stop-color:#fff" id="midPointStop177" offset="0"/><midPointStop style="stop-color:#fff" id="midPointStop179" offset=".5"/><midPointStop style="stop-color:#67c6dd" id="midPointStop181" offset="1"/></linearGradient><linearGradient id="linearGradient30220" x1="712.831" x2="789.705" y1="183.772" y2="245.306" gradientUnits="userSpaceOnUse" xlink:href="#XMLID_257_"/><linearGradient id="XMLID_256_" x1="808.509" x2="694.652" y1="273.79" y2="159.932" gradientUnits="userSpaceOnUse"><stop style="stop-color:#fff" id="stop158" offset="0"/><stop style="stop-color:#67c6dd" id="stop160" offset="1"/><midPointStop style="stop-color:#fff" id="midPointStop162" offset="0"/><midPointStop style="stop-color:#fff" id="midPointStop164" offset=".5"/><midPointStop style="stop-color:#67c6dd" id="midPointStop166" offset="1"/></linearGradient><linearGradient id="linearGradient30219" x1="808.509" x2="694.652" y1="273.79" y2="159.932" gradientUnits="userSpaceOnUse" xlink:href="#XMLID_256_"/><linearGradient id="XMLID_255_" x1="794.864" x2="961.859" y1="79.148" y2="212.817" gradientUnits="userSpaceOnUse"><stop style="stop-color:#fff" id="stop143" offset="0"/><stop style="stop-color:#67c6dd" id="stop145" offset="1"/><midPointStop style="stop-color:#fff" id="midPointStop147" offset="0"/><midPointStop style="stop-color:#fff" id="midPointStop149" offset=".5"/><midPointStop style="stop-color:#67c6dd" id="midPointStop151" offset="1"/></linearGradient><linearGradient id="linearGradient30218" x1="794.864" x2="961.859" y1="79.148" y2="212.817" gradientUnits="userSpaceOnUse" xlink:href="#XMLID_255_"/><linearGradient id="XMLID_254_" x1="726.732" x2="745.174" y1="322.913" y2="187.411" gradientUnits="userSpaceOnUse"><stop style="stop-color:#fff" id="stop119" offset="0"/><stop style="stop-color:#7e8789" id="stop121" offset="1"/><midPointStop style="stop-color:#fff" id="midPointStop123" offset="0"/><midPointStop style="stop-color:#fff" id="midPointStop125" offset=".5"/><midPointStop style="stop-color:#7e8789" id="midPointStop127" offset="1"/></linearGradient><linearGradient id="linearGradient30217" x1="726.732" x2="745.174" y1="322.913" y2="187.411" gradientUnits="userSpaceOnUse" xlink:href="#XMLID_254_"/></defs><metadata id="metadata4"/><g id="layer1"><g id="g111" transform="matrix(0.245602,0.000000,0.000000,0.245602,-140.1203,-6.698409)"><g id="g113"><path id="path115" knockout="Off" style="fill:none;stroke:#8a644a;stroke-width:2"/><linearGradient id="linearGradient23180" x1="726.732" x2="745.174" y1="322.913" y2="187.411" gradientUnits="userSpaceOnUse"><stop style="stop-color:#fff" id="stop23182" offset="0"/><stop style="stop-color:#7e8789" id="stop23184" offset="1"/><midPointStop style="stop-color:#fff" id="midPointStop23186" offset="0"/><midPointStop style="stop-color:#fff" id="midPointStop23188" offset=".5"/><midPointStop style="stop-color:#7e8789" id="midPointStop23190" offset="1"/></linearGradient><polygon id="polygon130" points="711.99 272.537 883.864 291.04 794.609 327.556 577.178 299.116 711.99 272.537" knockout="Off" style="fill:url(#linearGradient30217)"/><g id="g132"><polygon id="polygon134" points="896.248 59.337 883.832 56.416 883.832 291.174 896.248 284.767 896.248 59.337" knockout="Off" style="fill:#fecc72"/><polygon id="polygon136" points="882.386 56.076 711.99 70.344 711.99 272.537 883.609 291.289 883.832 291.174 883.832 56.416 882.386 56.076" knockout="Off" style="fill:#e5ad3d"/></g><polygon id="polygon139" points="783.775 176.404 784.023 269.048 717.876 262.594 718.753 177.01 783.775 176.404" knockout="Off" style="fill:#fecc72"/><linearGradient id="linearGradient23204" x1="794.864" x2="961.859" y1="79.148" y2="212.817" gradientUnits="userSpaceOnUse"><stop style="stop-color:#fff" id="stop23206" offset="0"/><stop style="stop-color:#67c6dd" id="stop23208" offset="1"/><midPointStop style="stop-color:#fff" id="midPointStop23210" offset="0"/><midPointStop style="stop-color:#fff" id="midPointStop23212" offset=".5"/><midPointStop style="stop-color:#67c6dd" id="midPointStop23214" offset="1"/></linearGradient><path id="path154" d="M 870.46400,66.771000 L 869.50100,165.99900 L 811.05600,164.99900 C 811.05600,165.00000 792.08300,83.397000 870.46400,66.771000 z" knockout="Off" style="fill:url(#linearGradient30218)"/><linearGradient id="linearGradient23219" x1="808.509" x2="694.652" y1="273.79" y2="159.932" gradientUnits="userSpaceOnUse"><stop style="stop-color:#fff" id="stop23221" offset="0"/><stop style="stop-color:#67c6dd" id="stop23223" offset="1"/><midPointStop style="stop-color:#fff" id="midPointStop23225" offset="0"/><midPointStop style="stop-color:#fff" id="midPointStop23227" offset=".5"/><midPointStop style="stop-color:#67c6dd" id="midPointStop23229" offset="1"/></linearGradient><polygon id="polygon169" points="783.843 177.488 783.843 265.168 722.923 259.839 721.387 175.693 783.843 177.488" knockout="Off" style="fill:url(#linearGradient30219)"/><linearGradient id="linearGradient23234" x1="712.831" x2="789.705" y1="183.772" y2="245.306" gradientUnits="userSpaceOnUse"><stop style="stop-color:#fff" id="stop23236" offset="0"/><stop style="stop-color:#67c6dd" id="stop23238" offset="1"/><midPointStop style="stop-color:#fff" id="midPointStop23240" offset="0"/><midPointStop style="stop-color:#fff" id="midPointStop23242" offset=".5"/><midPointStop style="stop-color:#67c6dd" id="midPointStop23244" offset="1"/></linearGradient><path id="path184" d="M 724.79300,251.73400 L 725.65600,198.56700 C 725.65600,198.56700 724.79300,177.03800 750.85200,179.28400 L 781.57100,180.40800 C 781.57200,180.40800 734.45800,188.45800 724.79300,251.73400 z" knockout="Off" style="fill:url(#linearGradient30220)"/><path id="path186" d="M 719.32800,77.682000 L 870.46500,66.771000 C 870.46500,66.771000 818.38700,183.26200 757.24000,209.35200 C 757.24000,209.35200 748.09100,225.73800 670.63600,176.81900 L 664.70200,172.66400 L 630.05200,193.86100 C 630.05200,193.86100 623.12200,200.38400 572.57300,163.28800 C 572.57400,163.28800 686.31000,156.35800 719.32800,77.682000 z" knockout="Off" style="fill:#fff"/><path id="path188" d="M 750.62600,125.16400 C 750.62600,125.16400 780.14700,133.71500 808.65300,129.23600 L 820.05500,122.92400 C 820.05500,122.92400 831.25200,129.03200 827.99400,141.04500 C 827.99400,141.04500 858.04300,99.144000 870.46300,66.771000 L 792.83800,72.065000 C 792.83900,72.065000 776.28100,105.82200 750.62600,125.16400 z" knockout="Off" style="fill:#abda4d"/><path id="path190" d="M 719.47600,77.317000 C 719.47600,77.317000 709.29600,105.82100 679.16200,126.99600 C 679.16200,126.99600 688.73200,139.41600 736.17200,133.71500 C 736.17200,133.71500 769.84600,112.54500 786.13500,72.637000 L 719.47600,77.317000 z" knockout="Off" style="fill:red"/><path id="path192" d="M 641.84100,160.66400 C 636.14300,161.00300 628.98400,161.92900 625.97400,164.39100 C 625.97400,164.39100 621.13400,155.09500 642.74600,158.96800 C 684.85600,160.26500 732.30200,136.36200 732.30200,136.36200 C 692.19300,144.50600 675.70000,129.64300 675.70000,129.64300 C 622.23900,161.23700 571.95300,163.12600 571.95300,163.12600 C 621.29400,202.55200 630.90700,193.16800 630.90700,193.16800 L 663.89000,173.21500 C 659.40000,168.17900 648.54800,163.32900 641.84100,160.66400 z" knockout="Off" style="fill:#0671b0"/><polygon id="polygon194" points="869.556 177.876 869.556 276.712 790.164 269.59 790.164 176.151 869.556 177.876" knockout="Off" style="fill:#fecc72"/><linearGradient id="linearGradient23259" x1="895.027" x2="767.969" y1="284.001" y2="156.944" gradientUnits="userSpaceOnUse"><stop style="stop-color:#fff" id="stop23261" offset="0"/><stop style="stop-color:#67c6dd" id="stop23263" offset="1"/><midPointStop style="stop-color:#fff" id="midPointStop23265" offset="0"/><midPointStop style="stop-color:#fff" id="midPointStop23267" offset=".5"/><midPointStop style="stop-color:#67c6dd" id="midPointStop23269" offset="1"/></linearGradient><polygon id="polygon209" points="869.556 177.789 869.556 272.322 796.917 266.634 796.392 175.942 869.556 177.789" knockout="Off" style="fill:url(#linearGradient30221)"/><path id="path211" d="M 744.72200,128.21600 C 744.72200,128.21600 769.33900,136.56400 797.84300,133.91700 L 812.92900,127.40100 C 812.92900,127.40100 825.77300,138.15600 819.46200,153.22300 C 819.46200,153.22300 790.12800,195.66800 756.53000,209.86100 C 756.53000,209.86100 747.15900,221.56200 698.09500,193.37100 C 698.09500,193.37100 642.71500,158.75800 635.58800,158.55500 C 635.58900,158.55500 706.64800,157.53400 744.72200,128.21600 z" knockout="Off" style="fill:#ff0"/><linearGradient id="linearGradient23276" x1="785.049" x2="878.176" y1="182.787" y2="257.329" gradientUnits="userSpaceOnUse"><stop style="stop-color:#fff" id="stop23278" offset="0"/><stop style="stop-color:#67c6dd" id="stop23280" offset="1"/><midPointStop style="stop-color:#fff" id="midPointStop23282" offset="0"/><midPointStop style="stop-color:#fff" id="midPointStop23284" offset=".5"/><midPointStop style="stop-color:#67c6dd" id="midPointStop23286" offset="1"/></linearGradient><path id="path226" d="M 798.16900,260.56000 L 799.21400,201.26000 C 799.21400,201.26000 798.16900,177.24700 829.69800,179.75300 L 866.86600,181.00500 C 866.86700,181.00500 809.86300,189.98400 798.16900,260.56000 z" knockout="Off" style="fill:url(#linearGradient30222)"/><linearGradient id="linearGradient23291" x1="847.782" x2="853.674" y1="248.082" y2="301.954" gradientUnits="userSpaceOnUse"><stop style="stop-color:#fff" id="stop23293" offset="0"/><stop style="stop-color:#67c6dd" id="stop23295" offset="1"/><midPointStop style="stop-color:#fff" id="midPointStop23297" offset="0"/><midPointStop style="stop-color:#fff" id="midPointStop23299" offset=".5"/><midPointStop style="stop-color:#67c6dd" id="midPointStop23301" offset="1"/></linearGradient><path id="path241" d="M 829.77700,266.40800 C 829.77700,266.40800 852.92700,245.36200 866.81600,243.67900 L 865.97400,231.47400 C 865.97400,231.47500 849.55800,242.41700 829.77700,266.40800 z" knockout="Off" style="fill:url(#linearGradient30223)"/><linearGradient id="linearGradient23306" x1="849.465" x2="855.358" y1="144.121" y2="197.995" gradientUnits="userSpaceOnUse"><stop style="stop-color:#fff" id="stop23308" offset="0"/><stop style="stop-color:#67c6dd" id="stop23310" offset="1"/><midPointStop style="stop-color:#fff" id="midPointStop23312" offset="0"/><midPointStop style="stop-color:#fff" id="midPointStop23314" offset=".5"/><midPointStop style="stop-color:#67c6dd" id="midPointStop23316" offset="1"/></linearGradient><path id="path256" d="M 831.46000,162.44800 C 831.46000,162.44800 854.61000,141.40200 868.49900,139.71900 L 867.65700,127.51400 C 867.65800,127.51400 851.24200,138.45700 831.46000,162.44800 z" knockout="Off" style="fill:url(#linearGradient30224)"/><linearGradient id="linearGradient23321" x1="763.34" x2="769.233" y1="240.926" y2="294.8" gradientUnits="userSpaceOnUse"><stop style="stop-color:#fff" id="stop23323" offset="0"/><stop style="stop-color:#67c6dd" id="stop23325" offset="1"/><midPointStop style="stop-color:#fff" id="midPointStop23327" offset="0"/><midPointStop style="stop-color:#fff" id="midPointStop23329" offset=".5"/><midPointStop style="stop-color:#67c6dd" id="midPointStop23331" offset="1"/></linearGradient><path id="path271" d="M 745.33500,259.25300 C 745.33500,259.25300 768.48500,238.20800 782.37400,236.52400 L 781.53200,224.31900 C 781.53300,224.31900 765.11700,235.26300 745.33500,259.25300 z" knockout="Off" style="fill:url(#linearGradient30225)"/><linearGradient id="linearGradient23336" x1="689.53" x2="758.256" y1="157.283" y2="188.467" gradientUnits="userSpaceOnUse"><stop style="stop-color:#ff0" id="stop23338" offset="0"/><stop style="stop-color:#ffb300" id="stop23340" offset="1"/><midPointStop style="stop-color:#ff0" id="midPointStop23342" offset="0"/><midPointStop style="stop-color:#ff0" id="midPointStop23344" offset=".5"/><midPointStop style="stop-color:#ffb300" id="midPointStop23346" offset="1"/></linearGradient><path id="path286" d="M 745.13200,166.35000 L 732.51300,143.54600 C 732.51300,143.54600 769.50900,194.83200 757.00900,209.19400 C 757.00900,209.19400 747.43500,225.68300 680.14600,181.79900 C 680.14600,181.79900 725.18500,183.63700 745.13200,166.35000 z" knockout="Off" style="fill:url(#linearGradient30226)"/><linearGradient id="linearGradient23351" x1="834.195" x2="849.266" y1="100.342" y2="115.415" gradientUnits="userSpaceOnUse"><stop style="stop-color:#abda4d" id="stop23353" offset="0"/><stop style="stop-color:#33a02c" id="stop23355" offset="1"/><midPointStop style="stop-color:#abda4d" id="midPointStop23357" offset="0"/><midPointStop style="stop-color:#abda4d" id="midPointStop23359" offset=".5"/><midPointStop style="stop-color:#33a02c" id="midPointStop23361" offset="1"/></linearGradient><path id="path301" d="M 808.92100,129.11400 C 808.92100,129.11400 845.86600,112.75400 864.86800,76.972000 C 864.86900,76.972000 828.91200,113.56500 808.92100,129.11400 z" knockout="Off" style="fill:url(#linearGradient30227)"/><linearGradient id="linearGradient23366" x1="607.829" x2="607.829" y1="150.013" y2="201.286" gradientUnits="userSpaceOnUse"><stop style="stop-color:#0671b0" id="stop23368" offset="0"/><stop style="stop-color:#0a50a1" id="stop23370" offset="1"/><midPointStop style="stop-color:#0671b0" id="midPointStop23372" offset="0"/><midPointStop style="stop-color:#0671b0" id="midPointStop23374" offset=".5"/><midPointStop style="stop-color:#0a50a1" id="midPointStop23376" offset="1"/></linearGradient><path id="path316" d="M 583.02300,170.12400 C 583.02300,170.12400 620.98600,199.18800 630.07500,193.69700 C 630.07500,193.69700 636.79700,187.16500 628.46600,171.35500 C 628.46600,171.35500 622.78500,161.50900 627.33000,159.33200 L 583.02300,170.12400 z" knockout="Off" style="fill:url(#linearGradient30228)"/><linearGradient id="linearGradient23381" x1="776.015" x2="766.755" y1="150.294" y2="125.425" gradientUnits="userSpaceOnUse"><stop style="stop-color:#ff0" id="stop23383" offset="0"/><stop style="stop-color:#ffb300" id="stop23385" offset="1"/><midPointStop style="stop-color:#ff0" id="midPointStop23387" offset="0"/><midPointStop style="stop-color:#ff0" id="midPointStop23389" offset=".5"/><midPointStop style="stop-color:#ffb300" id="midPointStop23391" offset="1"/></linearGradient><path id="path331" d="M 747.51500,165.82100 C 747.51500,165.82100 736.40300,147.83100 732.96400,144.39200 C 732.96400,144.39200 772.11600,147.03800 809.15300,129.57800 C 809.15400,129.57800 760.21400,163.44000 747.51500,165.82100 z" knockout="Off" style="fill:url(#linearGradient30229)"/></g><linearGradient id="linearGradient23397" x1="886.864" x2="791.376" y1="135.27" y2="71.931" gradientUnits="userSpaceOnUse"><stop style="stop-color:#fff" id="stop23399" offset="0"/><stop style="stop-color:#abda4d" id="stop23401" offset="1"/><midPointStop style="stop-color:#fff" id="midPointStop23403" offset="0"/><midPointStop style="stop-color:#fff" id="midPointStop23405" offset=".5"/><midPointStop style="stop-color:#abda4d" id="midPointStop23407" offset="1"/></linearGradient><path id="path347" d="M 795.71000,75.172000 C 795.71000,75.172000 779.58300,100.44400 770.91800,110.55400 C 770.91800,110.55400 849.62600,75.172000 866.23300,69.395000 C 812.60000,73.104000 814.78000,73.333000 795.71000,75.172000 z" knockout="Off" style="fill:url(#linearGradient30230)"/><linearGradient id="linearGradient23412" x1="829.503" x2="686.78" y1="131.099" y2="80.784" gradientUnits="userSpaceOnUse"><stop style="stop-color:#fff" id="stop23414" offset="0"/><stop style="stop-color:red" id="stop23416" offset="1"/><midPointStop style="stop-color:#fff" id="midPointStop23418" offset="0"/><midPointStop style="stop-color:#fff" id="midPointStop23420" offset=".5"/><midPointStop style="stop-color:red" id="midPointStop23422" offset="1"/></linearGradient><path id="path362" d="M 691.38900,120.73100 C 691.38900,120.73100 713.53000,101.51800 722.40900,80.142000 L 781.29500,75.779000 C 781.29400,75.779000 742.14000,86.720000 691.38900,120.73100 z" knockout="Off" style="fill:url(#linearGradient30231)"/><g id="g364"><linearGradient id="linearGradient23429" x1="648.808" x2="643.071" y1="186.342" y2="173.255" gradientUnits="userSpaceOnUse"><stop style="stop-color:#fff" id="stop23431" offset="0"/><stop style="stop-color:#0671b0" id="stop23433" offset="1"/><midPointStop style="stop-color:#fff" id="midPointStop23435" offset="0"/><midPointStop style="stop-color:#fff" id="midPointStop23437" offset=".5"/><midPointStop style="stop-color:#0671b0" id="midPointStop23439" offset="1"/></linearGradient><path id="path379" d="M 653.94900,167.05400 L 631.18500,177.68900 C 631.18500,177.68900 634.84200,186.03500 630.60300,192.93700 L 663.99300,172.86000 L 653.94900,167.05400 z" knockout="Off" style="fill:url(#linearGradient30232)"/></g></g></g></svg>