<svg xmlns="http://www.w3.org/2000/svg" xmlns:cc="http://web.resource.org/cc/" xmlns:svg="http://www.w3.org/2000/svg" xmlns:xlink="http://www.w3.org/1999/xlink" id="svg2" width="750" height="750" version="1.0"><defs id="defs4"><linearGradient id="linearGradient3325"><stop style="stop-color:#0f0;stop-opacity:1" id="stop3327" offset="0"/><stop style="stop-color:#0f0;stop-opacity:0" id="stop3329" offset="1"/></linearGradient><filter id="filter3296"><feGaussianBlur id="feGaussianBlur3298" stdDeviation="8.009"/></filter><filter id="filter3472" width="2.2" height="2.2" x="-.6" y="-.6"><feGaussianBlur id="feGaussianBlur3474" stdDeviation="5.221"/></filter><filter id="filter3476" width="1.96" height="1.96" x="-.48" y="-.48"><feGaussianBlur id="feGaussianBlur3478" stdDeviation="4.177"/></filter><filter id="filter3482" width="1.72" height="1.72" x="-.36" y="-.36"><feGaussianBlur id="feGaussianBlur3484" stdDeviation="3.132"/></filter><filter id="filter3488" width="1.6" height="1.6" x="-.3" y="-.3"><feGaussianBlur id="feGaussianBlur3490" stdDeviation="2.61"/></filter><filter id="filter3504" width="1.36" height="1.36" x="-.18" y="-.18"><feGaussianBlur id="feGaussianBlur3506" stdDeviation="1.566"/></filter><filter id="filter3508" width="1.24" height="1.24" x="-.12" y="-.12"><feGaussianBlur id="feGaussianBlur3510" stdDeviation="1.044"/></filter><filter id="filter3516" width="2.92" height="2.92" x="-.96" y="-.96"><feGaussianBlur id="feGaussianBlur3518" stdDeviation="8.353"/></filter><filter id="filter3520" width="3.04" height="3.04" x="-1.02" y="-1.02"><feGaussianBlur id="feGaussianBlur3522" stdDeviation="8.875"/></filter><filter id="filter3530" width="2.92" height="2.92" x="-.96" y="-.96"><feGaussianBlur id="feGaussianBlur3532" stdDeviation="8.353"/></filter><linearGradient id="linearGradient4534" x1="94.13" x2="152.122" y1="134.433" y2="149.972" gradientTransform="matrix(0.9659258,-0.258819,0.258819,0.9659258,208.40806,114.60926)" gradientUnits="userSpaceOnUse" xlink:href="#linearGradient3325"/><filter id="filter4566"><feGaussianBlur id="feGaussianBlur4568" stdDeviation="5.773"/></filter><filter id="filter5547"><feGaussianBlur id="feGaussianBlur5549" stdDeviation="4.19"/></filter><filter id="filter5555"><feGaussianBlur id="feGaussianBlur5557" stdDeviation="2.786"/></filter><filter id="filter5559" width="2.2" height="2.2" x="-.6" y="-.6"><feGaussianBlur id="feGaussianBlur5561" stdDeviation="5.221"/></filter><filter id="filter5563" width="2.44" height="2.44" x="-.72" y="-.72"><feGaussianBlur id="feGaussianBlur5565" stdDeviation="6.265"/></filter><filter id="filter5567" width="2.68" height="2.68" x="-.84" y="-.84"><feGaussianBlur id="feGaussianBlur5569" stdDeviation="7.309"/></filter><filter id="filter5575"><feGaussianBlur id="feGaussianBlur5577" stdDeviation="16.286"/></filter><filter id="filter5603"><feGaussianBlur id="feGaussianBlur5605" stdDeviation="3.873"/></filter></defs><metadata id="metadata7"/><g id="layer1"><rect style="fill:#000;fill-opacity:1;stroke:none;stroke-width:1;stroke-linecap:square;stroke-miterlimit:4;stroke-dasharray:none;stroke-opacity:1;filter:url(#filter5575)" id="rect2160" width="651.429" height="651.429" x="49.286" y="52.462" rx="182.857" ry="182.857"/><text style="font-size:754.49682617px;font-style:normal;font-variant:normal;font-weight:400;font-stretch:normal;text-align:start;line-height:125%;writing-mode:lr-tb;text-anchor:start;fill:gray;fill-opacity:1;stroke:none;stroke-width:1px;stroke-linecap:butt;stroke-linejoin:miter;stroke-opacity:1;filter:url(#filter5603);font-family:Courier 10 Pitch" id="text5579" x="159.179" y="593.946" transform="matrix(0.995022,0,0,0.995022,-14.035751,1.8317922)" xml:space="preserve"><tspan id="tspan5581" x="159.179" y="593.946">R</tspan></text><path style="fill:none;fill-opacity:1;stroke:#4dff00;stroke-width:3;stroke-linecap:square;stroke-miterlimit:4;stroke-dasharray:24,6,3,6;stroke-dashoffset:0;stroke-opacity:1;filter:url(#filter5555)" id="path2162" d="M 260 240.93361 A 277.14285 277.14285 0 1 1 -294.28571,240.93361 A 277.14285 277.14285 0 1 1 260 240.93361 z" transform="translate(392.14285,137.24295)"/><path style="fill:none;fill-opacity:1;stroke:#4dff00;stroke-width:4.32596679;stroke-linecap:square;stroke-miterlimit:4;stroke-dasharray:34.60773431,8.65193358,4.32596679,8.65193358;stroke-dashoffset:0;stroke-opacity:1;filter:url(#filter5547)" id="path3134" d="M 260 240.93361 A 277.14285 277.14285 0 1 1 -294.28571,240.93361 A 277.14285 277.14285 0 1 1 260 240.93361 z" transform="matrix(0.6934866,0,0,0.6934866,386.88834,211.09233)"/><path style="fill:#0f0;fill-opacity:1;stroke:none;stroke-width:1;stroke-linecap:round;stroke-miterlimit:4.4000001;stroke-dasharray:none;stroke-dashoffset:0;stroke-opacity:1;filter:url(#filter3472)" id="path3336" d="M 219.26921 200.08363 A 10.441391 10.441391 0 1 1 198.38643,200.08363 A 10.441391 10.441391 0 1 1 219.26921 200.08363 z" transform="translate(343.8063,244.55955)"/><rect style="fill:#0f0;fill-opacity:1;stroke:none;stroke-width:1;stroke-linecap:round;stroke-miterlimit:4.4000001;stroke-dasharray:none;stroke-dashoffset:0;stroke-opacity:1;filter:url(#filter3476)" id="rect3338" width="20.883" height="20.883" x="637.47" y="330.904" rx="0" ry="0"/><path style="fill:#0f0;fill-opacity:1;stroke:none;stroke-width:1;stroke-linecap:round;stroke-miterlimit:4.4000001;stroke-dasharray:none;stroke-dashoffset:0;stroke-opacity:1;filter:url(#filter3482)" id="path3480" d="M 219.26921 200.08363 A 10.441391 10.441391 0 1 1 198.38643,200.08363 A 10.441391 10.441391 0 1 1 219.26921 200.08363 z" transform="translate(166.17218,178.09293)"/><rect style="fill:#0f0;fill-opacity:1;stroke:none;stroke-width:1;stroke-linecap:round;stroke-miterlimit:4.4000001;stroke-dasharray:none;stroke-dashoffset:0;stroke-opacity:1;filter:url(#filter3488)" id="rect3486" width="20.883" height="20.883" x="601.852" y="235.626" rx="0" ry="0"/><rect style="fill:#0f0;fill-opacity:1;stroke:none;stroke-width:1;stroke-linecap:round;stroke-miterlimit:4.4000001;stroke-dasharray:none;stroke-dashoffset:0;stroke-opacity:1;filter:url(#filter3504)" id="rect3492" width="20.883" height="20.883" x="364.559" y="177.288" rx="0" ry="0"/><path style="fill:#0f0;fill-opacity:1;stroke:none;stroke-width:1;stroke-linecap:round;stroke-miterlimit:4.4000001;stroke-dasharray:none;stroke-dashoffset:0;stroke-opacity:1;filter:url(#filter3508)" id="path3498" d="M 219.26921 200.08363 A 10.441391 10.441391 0 1 1 198.38643,200.08363 A 10.441391 10.441391 0 1 1 219.26921 200.08363 z" transform="translate(266.42237,-80.618075)"/><path style="fill:#0f0;fill-opacity:1;stroke:none;stroke-width:1;stroke-linecap:round;stroke-miterlimit:4.4000001;stroke-dasharray:none;stroke-dashoffset:0;stroke-opacity:1;filter:url(#filter5559)" id="path3512" d="M 219.26921 200.08363 A 10.441391 10.441391 0 1 1 198.38643,200.08363 A 10.441391 10.441391 0 1 1 219.26921 200.08363 z" transform="translate(426.97896,275.88372)"/><path style="fill:#0f0;fill-opacity:1;stroke:none;stroke-width:1;stroke-linecap:round;stroke-miterlimit:4.4000001;stroke-dasharray:none;stroke-dashoffset:0;stroke-opacity:1;filter:url(#filter3516)" id="path3514" d="M 219.26921 200.08363 A 10.441391 10.441391 0 1 1 198.38643,200.08363 A 10.441391 10.441391 0 1 1 219.26921 200.08363 z" transform="translate(-11.57966,240.4547)"/><path style="fill:#0f0;fill-opacity:1;stroke:none;stroke-width:1;stroke-linecap:round;stroke-miterlimit:4.4000001;stroke-dasharray:none;stroke-dashoffset:0;stroke-opacity:1;filter:url(#filter5567)" id="path3524" d="M 219.26921 200.08363 A 10.441391 10.441391 0 1 1 198.38643,200.08363 A 10.441391 10.441391 0 1 1 219.26921 200.08363 z" transform="translate(256.88728,436.62966)"/><path style="fill:#0f0;fill-opacity:1;stroke:none;stroke-width:1;stroke-linecap:round;stroke-miterlimit:4.4000001;stroke-dasharray:none;stroke-dashoffset:0;stroke-opacity:1;filter:url(#filter3520)" id="path3526" d="M 219.26921 200.08363 A 10.441391 10.441391 0 1 1 198.38643,200.08363 A 10.441391 10.441391 0 1 1 219.26921 200.08363 z" transform="translate(-45.51418,352.69965)"/><rect style="fill:#0f0;fill-opacity:1;stroke:none;stroke-width:1;stroke-linecap:round;stroke-miterlimit:4.4000001;stroke-dasharray:none;stroke-dashoffset:0;stroke-opacity:1;filter:url(#filter5563)" id="rect3528" width="20.883" height="20.883" x="544.424" y="571.056" rx="0" ry="0"/><rect style="fill:#0f0;fill-opacity:1;stroke:none;stroke-width:1;stroke-linecap:round;stroke-miterlimit:4.4000001;stroke-dasharray:none;stroke-dashoffset:0;stroke-opacity:1;filter:url(#filter3530)" id="rect3535" width="20.883" height="20.883" x="92.834" y="375.28" rx="0" ry="0"/><rect style="fill:#0f0;fill-opacity:1;stroke:none;stroke-width:1;stroke-linecap:round;stroke-miterlimit:4.4000001;stroke-dasharray:none;stroke-dashoffset:0;stroke-opacity:1;filter:url(#filter3530)" id="rect3537" width="20.883" height="20.883" x="301.662" y="101.193" rx="0" ry="0"/><path id="path3302" d="M 452.24112,100.01675 L 373.67338,393.25986 L 295.10564,99.832723 C 295.10564,99.832723 368.26123,74.284803 452.24112,100.01675 z" style="fill:url(#linearGradient4534);fill-opacity:1;fill-rule:evenodd;stroke:none;stroke-width:1;stroke-linecap:butt;stroke-linejoin:miter;stroke-miterlimit:4.4000001;stroke-dasharray:none;stroke-opacity:1;filter:url(#filter4566)"/></g></svg>